#!OML:ASF H:\ManfredETheater\Project 1\Capture day 1\Session 1\subject.ASF
:FULLY-SPECIFIED
:DEGREES
326
root -1.70126 17.0881 47.7398 -0.129265 -4.692 1.86569
lowerback 6.96973 -0.587899 -4.48839
upperback -2.15235 -1.15593 0.86864
thorax -6.06441 -0.382072 3.57375
lowerneck -18.73 -3.57594 -4.70047
upperneck 10.4033 -4.21122 3.99314
head 6.39163 -1.88777 1.58693
rclavicle 1.59711e-014 -9.93923e-016
rhumerus -45.3081 -20.5851 -66.1252
rradius 34.4134
rwrist -1.18422
rhand -20.0462 -13.7219
rfingers 7.12502
rthumb 6.29523 -43.6084
lclavicle 1.59711e-014 -9.93923e-016
lhumerus -39.0076 6.54997 77.4942
lradius 46.7077
lwrist -6.3096
lhand -11.7626 8.8133
lfingers 7.12502
lthumb 14.2858 38.3019
rfemur -17.7267 -7.57254 11.5997
rtibia 44.77
rfoot -18.7034 -3.67867
rtoes -3.21428
lfemur -12.4277 0.269664 -24.1682
ltibia 33.7952
lfoot -16.1691 0.967571
ltoes 0.321138
327
root -1.72323 17.0858 47.7794 -0.0843454 -4.50691 1.84363
lowerback 6.85888 -0.606642 -4.4208
upperback -2.16195 -1.16933 0.873824
thorax -6.01069 -0.392473 3.54024
lowerneck -18.6764 -3.58521 -4.72193
upperneck 10.3536 -4.22087 4.00407
head 6.36803 -1.89316 1.59357
rclavicle -1.39833e-014 9.34288e-015
rhumerus -45.2326 -20.5091 -66.2537
rradius 34.47
rwrist -1.22251
rhand -20.1029 -13.7003
rfingers 7.12502
rthumb 6.24048 -43.5884
lclavicle -1.39833e-014 9.34288e-015
lhumerus -38.9085 6.51855 77.5251
lradius 46.8689
lwrist -6.17793
lhand -12.0372 8.83789
lfingers 7.12502
lthumb 14.0212 38.345
rfemur -17.4315 -7.15401 11.5891
rtibia 43.338
rfoot -19.0079 -4.26326
rtoes -2.99226
lfemur -12.3286 0.21137 -24.0741
ltibia 33.8055
lfoot -16.3255 0.874251
ltoes 0.314835
328
root -1.7462 17.0836 47.8185 -0.0429356 -4.31328 1.81582
lowerback 6.74408 -0.626164 -4.34586
upperback -2.16862 -1.18291 0.881324
thorax -5.9517 -0.403354 3.50487
lowerneck -18.6178 -3.59536 -4.75047
upperneck 10.2989 -4.23103 4.02173
head 6.34237 -1.89858 1.60353
rclavicle 1.46107e-014 -5.36719e-015
rhumerus -45.1543 -20.4074 -66.3977
rradius 34.5321
rwrist -1.25896
rhand -20.1407 -13.6618
rfingers 7.12502
rthumb 6.20399 -43.5509
lclavicle 1.46107e-014 -5.36719e-015
lhumerus -38.807 6.49901 77.5563
lradius 46.9951
lwrist -6.07583
lhand -12.282 8.88466
lfingers 7.12502
lthumb 13.7852 38.4079
rfemur -17.116 -6.75077 11.5899
rtibia 41.9515
rfoot -19.218 -4.82944
rtoes -2.74139
lfemur -12.2288 0.14486 -23.9702
ltibia 33.8189
lfoot -16.4812 0.783092
ltoes 0.299033
329
root -1.77028 17.0816 47.8572 -0.00846156 -4.11673 1.77317
lowerback 6.62399 -0.643765 -4.25466
upperback -2.16985 -1.19211 0.892517
thorax -5.88456 -0.412878 3.46347
lowerneck -18.5462 -3.60826 -4.78989
upperneck 10.2348 -4.24434 4.05158
head 6.31227 -1.90513 1.619
rclavicle -4.99446e-015 -8.74653e-015
rhumerus -45.0737 -20.2827 -66.5568
rradius 34.6026
rwrist -1.29454
rhand -20.1558 -13.6184
rfingers 7.12502
rthumb 6.18938 -43.508
lclavicle -4.99446e-015 -8.74653e-015
lhumerus -38.7037 6.48357 77.5874
lradius 47.0913
lwrist -5.99934
lhand -12.483 8.94685
lfingers 7.12502
lthumb 13.5915 38.4832
rfemur -16.7796 -6.35344 11.6148
rtibia 40.6188
rfoot -19.301 -5.37672
rtoes -2.47851
lfemur -12.1227 0.0683353 -23.846
ltibia 33.8315
lfoot -16.6329 0.699243
ltoes 0.278589
330
root -1.79553 17.08 47.8952 0.0210146 -3.91965 1.71966
lowerback 6.51394 -0.662427 -4.1584
upperback -2.16906 -1.20266 0.908976
thorax -5.82094 -0.423034 3.42506
lowerneck -18.4964 -3.61838 -4.82194
upperneck 10.1863 -4.2544 4.07578
head 6.2903 -1.90997 1.63153
rclavicle -1.14922e-014 -1.78906e-015
rhumerus -44.9834 -20.1247 -66.7388
rradius 34.6816
rwrist -1.32807
rhand -20.1595 -13.5567
rfingers 7.12502
rthumb 6.1858 -43.4464
lclavicle -1.14922e-014 -1.78906e-015
lhumerus -38.6023 6.48236 77.6143
lradius 47.1623
lwrist -5.9471
lhand -12.6372 9.02761
lfingers 7.12502
lthumb 13.4429 38.5738
rfemur -16.4295 -5.95776 11.6615
rtibia 39.3468
rfoot -19.2231 -5.91136
rtoes -2.20847
lfemur -12.0136 -0.0131861 -23.7051
ltibia 33.8441
lfoot -16.7812 0.620668
ltoes 0.250818
331
root -1.82173 17.0785 47.9327 0.0435075 -3.71712 1.66758
lowerback 6.39809 -0.679853 -4.05996
upperback -2.16471 -1.21141 0.923911
thorax -5.75054 -0.432589 3.38341
lowerneck -18.4433 -3.63142 -4.85563
upperneck 10.1438 -4.26837 4.10019
head 6.26995 -1.91679 1.64398
rclavicle 9.48576e-015 7.35503e-015
rhumerus -44.8942 -19.9473 -66.9309
rradius 34.764
rwrist -1.35785
rhand -20.1382 -13.472
rfingers 7.12502
rthumb 6.20636 -43.3611
lclavicle 9.48576e-015 7.35503e-015
lhumerus -38.5048 6.48037 77.6417
lradius 47.2081
lwrist -5.92393
lhand -12.7449 9.10751
lfingers 7.12502
lthumb 13.3391 38.6606
rfemur -16.0661 -5.57884 11.715
rtibia 38.1464
rfoot -18.9389 -6.42401
rtoes -1.85836
lfemur -11.8981 -0.0972679 -23.5622
ltibia 33.855
lfoot -16.9268 0.541941
ltoes 0.21769
332
root -1.84894 17.0769 47.9697 0.0590544 -3.51331 1.60493
lowerback 6.28365 -0.697458 -3.95114
upperback -2.15636 -1.21964 0.941642
thorax -5.67695 -0.442283 3.33872
lowerneck -18.396 -3.64323 -4.89036
upperneck 10.1092 -4.28113 4.12943
head 6.25319 -1.92257 1.65819
rclavicle 1.14301e-014 3.77691e-015
rhumerus -44.7995 -19.7485 -67.1381
rradius 34.8522
rwrist -1.38192
rhand -20.1043 -13.3683
rfingers 7.12502
rthumb 6.23913 -43.2564
lclavicle 1.14301e-014 3.77691e-015
lhumerus -38.4097 6.4808 77.6676
lradius 47.2298
lwrist -5.9238
lhand -12.8108 9.19012
lfingers 7.12502
lthumb 13.2756 38.7473
rfemur -15.6953 -5.21699 11.7931
rtibia 37.0339
rfoot -18.434 -6.90959
rtoes -1.2922
lfemur -11.7754 -0.179379 -23.4028
ltibia 33.8639
lfoot -17.0717 0.45908
ltoes 0.185029
333
root -1.87741 17.0754 48.0066 0.0692009 -3.31411 1.54299
lowerback 6.16516 -0.71391 -3.84912
upperback -2.14331 -1.22693 0.960507
thorax -5.59611 -0.451424 3.29875
lowerneck -18.3647 -3.6531 -4.92357
upperneck 10.0907 -4.29171 4.16073
head 6.24413 -1.92683 1.67284
rclavicle 1.14798e-014 -3.97569e-016
rhumerus -44.6948 -19.5305 -67.3596
rradius 34.9418
rwrist -1.39234
rhand -20.0601 -13.2513
rfingers 7.12502
rthumb 6.28184 -43.1381
lclavicle 1.14798e-014 -3.97569e-016
lhumerus -38.3155 6.48533 77.6916
lradius 47.2255
lwrist -5.94722
lhand -12.8445 9.25807
lfingers 7.12502
lthumb 13.2431 38.8174
rfemur -15.3268 -4.87324 11.887
rtibia 36.0324
rfoot -17.7335 -7.36478
rtoes -0.446385
lfemur -11.645 -0.255451 -23.2381
ltibia 33.8678
lfoot -17.2156 0.373966
ltoes 0.164386
334
root -1.90731 17.0737 48.043 0.0762668 -3.12174 1.49169
lowerback 6.0395 -0.724024 -3.7633
upperback -2.1343 -1.22731 0.977546
thorax -5.51588 -0.45645 3.26517
lowerneck -18.3182 -3.66499 -4.96187
upperneck 10.0845 -4.30512 4.19335
head 6.23685 -1.93272 1.68855
rclavicle -2.57613e-014 6.36111e-015
rhumerus -44.6034 -19.3001 -67.5781
rradius 35.0351
rwrist -1.39169
rhand -20.0057 -13.1284
rfingers 7.12502
rthumb 6.33433 -43.0137
lclavicle -2.57613e-014 6.36111e-015
lhumerus -38.2395 6.47886 77.7203
lradius 47.2024
lwrist -5.99155
lhand -12.8442 9.32043
lfingers 7.12502
lthumb 13.2434 38.8797
rfemur -14.9672 -4.55551 11.9912
rtibia 35.1638
rfoot -16.9571 -7.79047
rtoes 0.537568
lfemur -11.5117 -0.324704 -23.0777
ltibia 33.8664
lfoot -17.357 0.287665
ltoes 0.134954
